<?xml version="1.0" encoding="UTF-8"?>
<!-- Created with Inkscape (http://www.inkscape.org/) -->
<svg width="192" height="192" version="1.1" viewBox="0 0 192 192" xmlns="http://www.w3.org/2000/svg">
 <path d="m39.645 32.877c7.2237-3.6382 14.042-7.6223 22.08-9.2685 5.0042-1.0248 10.387-0.95896 15.36 0.23608 35.337 8.4914 30.391 45.154 30.08 72.392-25.23-23.927-60.613 3.3981-64.483 32.64-2.4653 18.628 9.1601 36.919 28.963 37.735 5.4172 0.22323 10.969-0.5733 16-2.6369 7.7248-3.1688 13.175-8.3975 18.88-14.298 4.0335 23.462 28.31 35.033 50.24 32.379 14.404-1.7437 30.731-11.237 28.998-28.219-3.1785-31.134-49.591-29.421-47.838 2.24 0.2399 4.3316 1.7479 8.079 3.8 11.84-22.866-7.0949-25.589-28.465-23.537-49.6 3.0676-31.588 11.819-69.736-13.908-94.695-22.606-21.931-54.848-15.692-78.076 1.6179-13.145 9.7955-27.209 26.535-16.04 43.157 16.773 24.961 56.324-0.68751 40.129-25.92-2.6854-4.184-6.4019-7.1287-10.649-9.6z" fill="#020202"/>
</svg>
